<svg xmlns="http://www.w3.org/2000/svg" viewBox="0 0 240 240" fill="none">
  <defs>
    <linearGradient id="g1" x1="120" y1="0" x2="120" y2="240" gradientUnits="userSpaceOnUse">
      <stop offset="0%" stop-color="#a8cdf7"/>
      <stop offset="100%" stop-color="#6b8fd4"/>
    </linearGradient>
    <linearGradient id="g2" x1="120" y1="20" x2="120" y2="220" gradientUnits="userSpaceOnUse">
      <stop offset="0%" stop-color="#8bb8f0"/>
      <stop offset="100%" stop-color="#5574b8"/>
    </linearGradient>
  </defs>
  <!-- Back L (upper, lighter) -->
  <path d="
    M 88 16
    C 88 16, 112 16, 112 16
    C 134.1 16, 152 33.9, 152 56
    L 152 120
    C 152 131.05, 143.05 140, 132 140
    L 120 140
    C 120 140, 120 56, 120 56
    C 120 44.95, 111.05 36, 100 36
    L 88 36
    C 76.95 36, 68 27.05, 68 16
    Z
  " fill="url(#g1)" opacity="0.55"/>
  <!-- Front L (main shape) -->
  <path d="
    M 100 52
    C 122.1 52, 140 69.9, 140 92
    L 140 184
    L 184 184
    C 195.05 184, 204 192.95, 204 204
    C 204 215.05, 195.05 224, 184 224
    L 100 224
    C 88.95 224, 80 215.05, 80 204
    L 80 92
    C 80 80.95, 88.95 72, 100 72
    C 111.05 72, 120 80.95, 120 92
    L 120 184
    L 140 184
    L 140 92
    C 140 69.9, 122.1 52, 100 52
    Z
  " fill="url(#g2)"/>
  <!-- Chain interlink overlap -->
  <path d="
    M 120 92
    L 120 120
    L 132 120
    C 137 120, 140 115, 140 110
    L 140 92
    C 140 69.9, 122.1 52, 100 52
    C 88.95 52, 80 60.95, 80 72
    L 80 92
    C 80 80.95, 88.95 72, 100 72
    C 111.05 72, 120 80.95, 120 92
    Z
  " fill="url(#g1)" opacity="0.5"/>
</svg>
